<svg width="79" height="74" viewBox="0 0 79 74" fill="none" xmlns="http://www.w3.org/2000/svg">
<g id="Group 5" filter="url(#filter0_d_1_17)">
<path id="Ellipse 2" d="M74.8 33C74.8 51.1014 59.0097 65.8 39.5 65.8C19.9903 65.8 4.2 51.1014 4.2 33C4.2 14.8986 19.9903 0.2 39.5 0.2C59.0097 0.2 74.8 14.8986 74.8 33Z" fill="#ECE9EC" stroke="#F89AEE" stroke-width="0.4"/>
<g id="Facbook">
<path id="Vector" d="M39.5376 52.13C50.6006 52.13 59.5689 43.662 59.5689 33.2161C59.5689 22.7703 50.6006 14.3022 39.5376 14.3022C28.4746 14.3022 19.5062 22.7703 19.5062 33.2161C19.5062 43.662 28.4746 52.13 39.5376 52.13Z" fill="#1977F3"/>
<path id="Vector_2" d="M47.3349 38.6847L48.2223 33.2162H42.6672V29.668C42.6672 28.1732 43.4419 26.7129 45.9321 26.7129H48.4589V22.0583C48.4589 22.0583 46.1659 21.6886 43.9743 21.6886C39.3996 21.6886 36.408 24.3058 36.408 29.0482V33.2162H31.3206V38.6847H36.408V51.9013C37.4277 52.0529 38.4728 52.13 39.5376 52.13C40.6024 52.13 41.6475 52.0502 42.6672 51.9013V38.6847H47.3349Z" fill="white"/>
</g>
</g>
<defs>
<filter id="filter0_d_1_17" x="0" y="0" width="79" height="74" filterUnits="userSpaceOnUse" color-interpolation-filters="sRGB">
<feFlood flood-opacity="0" result="BackgroundImageFix"/>
<feColorMatrix in="SourceAlpha" type="matrix" values="0 0 0 0 0 0 0 0 0 0 0 0 0 0 0 0 0 0 127 0" result="hardAlpha"/>
<feOffset dy="4"/>
<feGaussianBlur stdDeviation="2"/>
<feComposite in2="hardAlpha" operator="out"/>
<feColorMatrix type="matrix" values="0 0 0 0 0 0 0 0 0 0 0 0 0 0 0 0 0 0 0.25 0"/>
<feBlend mode="normal" in2="BackgroundImageFix" result="effect1_dropShadow_1_17"/>
<feBlend mode="normal" in="SourceGraphic" in2="effect1_dropShadow_1_17" result="shape"/>
</filter>
</defs>
</svg>
