<svg width="94" height="84" viewBox="0 0 94 84" fill="none" xmlns="http://www.w3.org/2000/svg">
<path id="Ellipse 4" d="M9.95767 42.7007L10.0519 42.486L9.94702 42.2762C3.95174 30.2857 1.05453 21.7681 0.670683 15.7338C0.479385 12.7265 0.914637 10.3658 1.87574 8.50477C2.83432 6.64858 4.33735 5.24784 6.35637 4.19313C10.4278 2.06628 16.5359 1.37494 24.2746 1.23421C28.525 1.15692 33.2127 1.24461 38.2801 1.3394C42.4414 1.41723 46.8586 1.49986 51.4998 1.49985C74.4253 1.49985 92.9998 19.8618 92.9998 42.4998C92.9998 65.1352 74.4297 83.4955 51.5079 83.4998C44.4769 83.2683 38.0766 83.2872 32.3934 83.3039C28.8925 83.3143 25.6637 83.3238 22.7272 83.2735C18.8584 83.2072 15.4842 83.0377 12.6163 82.6348C9.74559 82.2314 7.41354 81.5982 5.61301 80.6229C3.82454 79.6541 2.5587 78.3476 1.80369 76.5728C1.0435 74.7858 0.783537 72.4822 1.09094 69.4965C1.70715 63.5114 4.58317 54.9496 9.95767 42.7007Z" fill="#80508A" stroke="#D68EBA"/>
</svg>
